<svg xmlns="http://www.w3.org/2000/svg" width="32" height="32" viewBox="0 0 32 32"><g transform="translate(-275.036 -1139.112)"><path fill="#2b4255" d="m 278.53516,1151.1113 a 0.50005,0.50005 0 0 0 -0.5,0.5 l 0,9 a 0.50005,0.50005 0 0 0 0.5,0.5 l 13,0 a 0.50005,0.50005 0 0 0 0.5,-0.5 l 0,-9 a 0.50005,0.50005 0 0 0 -0.5,-0.5 l -13,0 z m 0.5,1 12,0 0,8 -12,0 0,-8 z" color="#000" font-family="sans-serif" font-weight="400" overflow="visible" style="line-height:normal;text-indent:0;text-align:start;text-decoration-line:none;text-decoration-style:solid;text-decoration-color:#000;text-transform:none;block-progression:tb;isolation:auto;mix-blend-mode:normal"/><path fill="#2b4255" fill-rule="evenodd" d="M283.03516 1161.0117l0 2.1995 1 0 0-2.1995zM286.03516 1161.0117l0 2.1995 1 0 0-2.1995z" color="#000" font-family="sans-serif" font-weight="400" overflow="visible" style="line-height:normal;text-indent:0;text-align:start;text-decoration-line:none;text-decoration-style:solid;text-decoration-color:#000;text-transform:none;block-progression:tb;isolation:auto;mix-blend-mode:normal"/><path fill="#2b4255" fill-rule="evenodd" d="m 282.08594,1163.1113 0,1 6,0 0,-1 -6,0 z" color="#000" font-family="sans-serif" font-weight="400" overflow="visible" style="line-height:normal;text-indent:0;text-align:start;text-decoration-line:none;text-decoration-style:solid;text-decoration-color:#000;text-transform:none;block-progression:tb;isolation:auto;mix-blend-mode:normal"/><path fill="#f8b84e" d="m 280.03595,1153.1122 10,0 0,6 -10,0 z"/><path fill="#2b4255" fill-rule="evenodd" d="m 299.03516,1158.1113 0,2 1,0 0,-2 -1,0 z" color="#000" font-family="sans-serif" font-weight="400" overflow="visible" style="line-height:normal;text-indent:0;text-align:start;text-decoration-line:none;text-decoration-style:solid;text-decoration-color:#000;text-transform:none;block-progression:tb;isolation:auto;mix-blend-mode:normal"/><path fill="#2b4255" d="m 294.53516,1146.1113 a 0.50004997,0.50004997 0 0 0 -0.5,0.5 l 0,17 a 0.50004997,0.50004997 0 0 0 0.5,0.5 l 10,0 a 0.50004997,0.50004997 0 0 0 0.5,-0.5 l 0,-17 a 0.50004997,0.50004997 0 0 0 -0.5,-0.5 l -10,0 z m 0.5,1 9,0 0,16 -9,0 0,-16 z" color="#000" font-family="sans-serif" font-weight="400" overflow="visible" style="line-height:normal;text-indent:0;text-align:start;text-decoration-line:none;text-decoration-style:solid;text-decoration-color:#000;text-transform:none;block-progression:tb;isolation:auto;mix-blend-mode:normal"/><path fill="#f8b84e" d="M296.03595 1148.1122l7 0 0 2-7 0zM296.03595 1151.1122l7 0 0 2-7 0zM299.53595 1159.1122a1.5 1.5 0 0 0-1.5 1.5 1.5 1.5 0 0 0 1.5 1.5 1.5 1.5 0 0 0 1.5-1.5 1.5 1.5 0 0 0-1.5-1.5zm0 1a.5.5 0 0 1 .5.5.5.5 0 0 1-.5.5.5.5 0 0 1-.5-.5.5.5 0 0 1 .5-.5zM296.03595 1154.1122l7 0 0 2-7 0z"/></g></svg>